<svg version="1.1" id="Layer_1" xmlns="http://www.w3.org/2000/svg" xmlns:xlink="http://www.w3.org/1999/xlink" x="0px" y="0px"
	 width="100%" viewBox="0 0 320 320" enable-background="new 0 0 320 320" xml:space="preserve">
<path fill="#000000" opacity="1.000000" stroke="none" 
	d="
M321.000000,102.000000 
	C321.000000,175.333328 321.000000,248.166672 321.000000,321.000000 
	C214.333328,321.000000 107.666664,321.000000 1.000000,321.000000 
	C1.000000,214.333328 1.000000,107.666664 1.000000,1.000000 
	C107.666664,1.000000 214.333328,1.000000 321.000000,1.000000 
	C321.000000,34.500000 321.000000,68.000000 321.000000,102.000000 
M212.576553,15.363387 
	C210.751343,14.892209 208.926117,14.421031 206.616348,13.390615 
	C203.736969,12.648380 200.857605,11.906146 197.218384,11.001346 
	C194.472519,10.389400 191.726639,9.777453 188.165985,9.045192 
	C185.438980,8.751535 182.711975,8.457878 179.269348,7.774637 
	C176.841537,7.570467 174.413727,7.366295 171.103699,7.045966 
	C168.731354,7.085945 166.358994,7.125924 163.104965,7.045885 
	C160.732849,7.085905 158.360748,7.125926 155.120529,7.041236 
	C153.077179,7.082119 151.033813,7.123001 148.162155,7.037530 
	C145.771194,7.412604 143.380249,7.787677 140.156372,8.035875 
	C137.433136,8.412846 134.709885,8.789816 131.203384,9.064217 
	C127.465202,10.097730 123.727028,11.131242 119.225655,12.053084 
	C115.480736,13.423683 111.735809,14.794282 107.238007,16.044888 
	C104.146591,17.322737 101.055176,18.600588 97.231094,20.003286 
	C92.147148,22.723913 87.063210,25.444538 81.454086,28.109245 
	C81.262718,28.394182 81.071358,28.679121 80.950188,28.965530 
	C80.950188,28.965530 80.942642,28.895725 80.225098,29.003622 
	C78.007835,30.316135 75.694504,31.491299 73.589142,32.963814 
	C61.429092,41.468700 49.970661,50.816383 40.921906,62.684250 
	C36.225338,68.844017 32.202923,75.517807 27.413967,82.076614 
	C27.115477,82.259598 26.964746,82.526138 26.473309,83.064911 
	C26.370926,83.365875 26.268541,83.666847 25.859154,84.629929 
	C23.532356,89.407768 21.205557,94.185600 18.236132,99.299850 
	C17.122860,102.514534 16.009590,105.729218 14.965123,108.954079 
	C14.965123,108.954079 14.962893,108.884567 14.477376,109.069763 
	C14.373631,109.368935 14.269886,109.668114 14.001936,110.730484 
	C13.056109,114.149864 12.110282,117.569252 10.801560,121.690346 
	C9.923304,125.455879 9.045046,129.221420 8.016231,133.804504 
	C7.731774,136.532654 7.447318,139.260788 6.776821,142.712311 
	C6.572509,145.138367 6.368196,147.564407 6.025938,150.857224 
	C6.072607,152.900894 6.119276,154.944565 6.025348,157.855225 
	C6.070951,159.899521 6.116553,161.943817 6.027706,164.880508 
	C6.073831,167.582001 6.119955,170.283478 6.034181,173.796249 
	C6.410021,175.858780 6.785861,177.921310 7.033134,180.834167 
	C7.410234,183.881882 7.787334,186.929596 8.318193,190.715714 
	C8.932553,193.138535 9.546913,195.561356 10.097656,198.746826 
	C11.048370,201.530884 11.999084,204.314926 12.992814,207.822998 
	C13.627876,209.568573 14.262938,211.314133 14.973839,213.798157 
	C15.950041,216.216980 16.926243,218.635803 18.028290,221.754135 
	C19.320744,224.187683 20.613199,226.621216 22.035254,229.752411 
	C23.321974,232.181625 24.608692,234.610855 26.044006,237.726974 
	C27.892447,240.283157 29.740887,242.839340 31.641918,246.105850 
	C32.328861,247.430557 32.869873,248.858734 33.724705,250.064423 
	C45.986351,267.358490 61.181606,281.498047 79.270844,292.580017 
	C109.284012,310.966919 142.106781,317.843323 176.761261,314.730743 
	C204.173447,312.268646 229.304016,302.498627 251.925705,286.489288 
	C276.221222,269.295349 293.514404,246.635315 304.996643,219.397217 
	C313.656708,198.853897 316.739716,177.377747 316.138123,155.104660 
	C315.669250,137.746170 312.198883,121.168976 305.994110,105.110519 
	C299.225372,87.592461 289.518616,71.740356 277.036560,57.734081 
	C267.728485,47.289349 257.159485,38.197128 244.389404,30.766068 
	C241.730759,29.348637 239.072098,27.931204 236.039474,25.970766 
	C233.376953,24.611158 230.714417,23.251549 227.597046,21.379993 
	C225.430557,20.570280 223.264084,19.760569 220.633438,18.407104 
	C218.105698,17.566929 215.577957,16.726753 212.576553,15.363387 
z"/>
<path fill="#00164F" opacity="1.000000" stroke="none" 
	d="
M244.969589,31.144794 
	C257.159485,38.197128 267.728485,47.289349 277.036560,57.734081 
	C289.518616,71.740356 299.225372,87.592461 305.994110,105.110519 
	C312.198883,121.168976 315.669250,137.746170 316.138123,155.104660 
	C316.739716,177.377747 313.656708,198.853897 304.996643,219.397217 
	C293.514404,246.635315 276.221222,269.295349 251.925705,286.489288 
	C229.304016,302.498627 204.173447,312.268646 176.761261,314.730743 
	C142.106781,317.843323 109.284012,310.966919 79.270844,292.580017 
	C61.181606,281.498047 45.986351,267.358490 33.724705,250.064423 
	C32.869873,248.858734 32.328861,247.430557 31.930004,245.525864 
	C39.835445,237.440536 47.393673,229.873398 55.119450,222.481384 
	C56.686699,220.981842 58.886070,220.142990 60.990959,219.258347 
	C62.086666,220.693893 62.985439,221.870636 63.979195,223.378510 
	C66.086540,226.445587 68.098900,229.181534 70.243790,232.221893 
	C72.286446,234.667953 74.196564,236.809601 76.254181,239.241150 
	C78.286659,241.317825 80.171646,243.104599 82.228600,245.169540 
	C84.233154,246.974625 86.065735,248.501541 88.099525,250.298279 
	C91.480286,252.743073 94.659836,254.918030 98.053024,257.358704 
	C102.106071,259.763489 105.945480,261.902588 109.947487,264.226227 
	C110.353371,264.639862 110.637352,264.793854 111.200134,264.938324 
	C111.438248,265.003845 111.923584,265.095734 112.178528,265.332031 
	C132.853104,275.346069 154.351913,278.101440 176.617767,275.001953 
	C209.142624,270.474274 235.003860,254.448303 254.344711,228.194092 
	C271.537933,204.855179 278.256622,178.268311 275.819366,149.529678 
	C274.706757,136.410324 271.699554,123.590569 265.055603,111.555054 
	C262.412140,106.748367 259.848877,102.288834 257.156311,97.510117 
	C254.704437,94.065826 252.381912,90.940720 249.908859,87.543312 
	C248.328430,85.791275 246.898560,84.311546 245.298386,82.530396 
	C243.072357,80.167877 241.016647,78.106773 238.792969,75.761742 
	C236.398926,73.689270 234.172836,71.900726 231.740173,69.858322 
	C229.539871,68.329918 227.546143,67.055374 225.307007,65.527069 
	C223.042267,63.808830 221.022964,62.344353 219.027451,60.527443 
	C220.104172,58.546761 220.923630,56.691250 222.249695,55.328846 
	C228.617554,48.786568 235.161743,42.416103 241.546692,35.890110 
	C242.895416,34.511604 243.839218,32.736927 244.969589,31.144794 
z"/>
<path fill="#1095B1" opacity="1.000000" stroke="none" 
	d="
M6.163886,149.990463 
	C6.368196,147.564407 6.572509,145.138367 7.292912,142.271774 
	C9.226560,140.700943 10.768919,139.695587 12.043584,138.422256 
	C53.897324,96.612274 95.731789,54.782986 137.528839,12.916339 
	C138.896881,11.546018 139.845276,9.756735 140.989288,8.162750 
	C143.380249,7.787677 145.771194,7.412604 148.552765,7.449988 
	C147.767548,9.602348 146.831909,11.580541 145.378784,13.045381 
	C130.431946,28.112722 115.366493,43.062508 100.446960,58.156609 
	C98.922325,59.699074 98.132637,61.967979 96.771713,64.150131 
	C83.913109,73.014153 73.387657,83.747116 64.161957,96.186188 
	C62.065304,97.434868 60.126938,98.446999 58.645084,99.918777 
	C43.042221,115.415611 27.544962,131.018906 11.911256,146.484360 
	C10.358685,148.020233 8.096645,148.838913 6.163886,149.990463 
z"/>
<path fill="#14AEC1" opacity="1.000000" stroke="none" 
	d="
M8.166788,132.986954 
	C9.045046,129.221420 9.923304,125.455879 11.306026,121.260521 
	C13.107164,119.820717 14.528237,118.935310 15.682415,117.782654 
	C49.443920,84.065849 83.186043,50.329609 116.889542,16.554846 
	C118.136681,15.305065 118.965233,13.637581 119.988846,12.164755 
	C123.727028,11.131242 127.465202,10.097730 131.515839,9.438166 
	C130.698517,11.228115 129.693115,12.768362 128.420883,14.042063 
	C89.944542,52.562717 51.448814,91.064026 12.915073,129.527237 
	C11.545626,130.894180 9.758986,131.843170 8.166788,132.986954 
z"/>
<path fill="#12A0B9" opacity="1.000000" stroke="none" 
	d="
M8.091509,133.395721 
	C9.758986,131.843170 11.545626,130.894180 12.915073,129.527237 
	C51.448814,91.064026 89.944542,52.562717 128.420883,14.042063 
	C129.693115,12.768362 130.698517,11.228115 131.907471,9.489450 
	C134.709885,8.789816 137.433136,8.412846 140.572830,8.099312 
	C139.845276,9.756735 138.896881,11.546018 137.528839,12.916339 
	C95.731789,54.782986 53.897324,96.612274 12.043584,138.422256 
	C10.768919,139.695587 9.226560,140.700943 7.485932,141.910095 
	C7.447318,139.260788 7.731774,136.532654 8.091509,133.395721 
z"/>
<path fill="#17BDCA" opacity="1.000000" stroke="none" 
	d="
M119.607254,12.108919 
	C118.965233,13.637581 118.136681,15.305065 116.889542,16.554846 
	C83.186043,50.329609 49.443920,84.065849 15.682415,117.782654 
	C14.528237,118.935310 13.107164,119.820717 11.487473,120.909668 
	C12.110282,117.569252 13.056109,114.149864 14.238091,110.185280 
	C14.653749,109.398994 14.816632,109.147156 14.962893,108.884567 
	C14.962893,108.884567 14.965123,108.954079 15.273664,108.891800 
	C17.024240,107.750557 18.623215,106.828850 19.885258,105.569504 
	C48.134163,77.380821 76.355385,49.164352 104.536217,20.907627 
	C105.900902,19.539267 106.848862,17.755304 107.990891,16.164879 
	C111.735809,14.794282 115.480736,13.423683 119.607254,12.108919 
z"/>
<path fill="#1BD5D8" opacity="1.000000" stroke="none" 
	d="
M18.878761,98.963440 
	C21.205557,94.185600 23.532356,89.407768 26.165257,84.132454 
	C26.644655,83.388420 26.808126,83.135506 26.961773,82.876244 
	C26.964746,82.526138 27.115477,82.259598 27.988918,81.958603 
	C29.772598,80.997070 31.137804,80.310707 32.166588,79.286438 
	C47.615147,63.905655 63.036602,48.497448 78.398163,33.029873 
	C79.508331,31.912035 80.106445,30.285658 80.942642,28.895725 
	C80.942642,28.895725 80.950188,28.965530 81.108978,28.845375 
	C81.532791,28.573915 81.769958,28.387230 81.979263,28.165161 
	C87.063210,25.444538 92.147148,22.723913 97.536217,20.284393 
	C96.880852,21.890022 96.077934,23.371708 94.936661,24.515909 
	C71.113457,48.400410 47.264210,72.259010 23.362793,96.065186 
	C22.129431,97.293633 20.385164,98.009132 18.878761,98.963440 
z"/>
<path fill="#19C9D1" opacity="1.000000" stroke="none" 
	d="
M18.557447,99.131645 
	C20.385164,98.009132 22.129431,97.293633 23.362793,96.065186 
	C47.264210,72.259010 71.113457,48.400410 94.936661,24.515909 
	C96.077934,23.371708 96.880852,21.890022 97.902550,20.221970 
	C101.055176,18.600588 104.146591,17.322737 107.614441,16.104881 
	C106.848862,17.755304 105.900902,19.539267 104.536217,20.907627 
	C76.355385,49.164352 48.134163,77.380821 19.885258,105.569504 
	C18.623215,106.828850 17.024240,107.750557 15.239262,108.886719 
	C16.009590,105.729218 17.122860,102.514534 18.557447,99.131645 
z"/>
<path fill="#08608F" opacity="1.000000" stroke="none" 
	d="
M8.164435,189.977310 
	C7.787334,186.929596 7.410234,183.881882 7.420350,180.331238 
	C9.337576,178.586914 10.985859,177.464844 12.378311,176.084671 
	C21.100479,167.439407 29.693903,158.662643 38.508640,150.113663 
	C40.323235,148.353790 42.893398,147.372971 45.071178,146.411499 
	C45.278965,148.500916 45.530869,150.211899 45.614319,152.231598 
	C45.259811,153.701141 45.073761,154.861938 44.560757,156.097473 
	C42.701195,157.402939 41.044582,158.508575 39.656120,159.884735 
	C30.712715,168.748932 21.856375,177.701096 12.893829,186.545715 
	C11.523268,187.898239 9.750944,188.843628 8.164435,189.977310 
z"/>
<path fill="#001E57" opacity="1.000000" stroke="none" 
	d="
M244.679504,30.955429 
	C243.839218,32.736927 242.895416,34.511604 241.546692,35.890110 
	C235.161743,42.416103 228.617554,48.786568 222.249695,55.328846 
	C220.923630,56.691250 220.104172,58.546761 218.753540,60.480701 
	C217.953445,60.558689 217.451050,60.330990 216.684052,59.886734 
	C214.283325,58.425560 212.147156,57.180943 210.032440,55.580399 
	C211.209824,53.476105 212.135269,51.507519 213.560226,50.016178 
	C221.108780,42.115929 228.782867,34.335632 236.413452,26.513769 
	C239.072098,27.931204 241.730759,29.348637 244.679504,30.955429 
z"/>
<path fill="#065486" opacity="1.000000" stroke="none" 
	d="
M8.241315,190.346512 
	C9.750944,188.843628 11.523268,187.898239 12.893829,186.545715 
	C21.856375,177.701096 30.712715,168.748932 39.656120,159.884735 
	C41.044582,158.508575 42.701195,157.402939 44.629959,156.365784 
	C45.100342,157.108871 45.174564,157.658401 45.173805,158.549026 
	C45.121861,160.591309 45.144894,162.292465 45.109554,164.374237 
	C44.979904,165.520798 44.908630,166.286743 44.513435,167.123703 
	C42.772518,168.316879 41.234547,169.316925 39.958183,170.581100 
	C31.806520,178.654938 23.767920,186.843918 15.547160,194.846100 
	C14.102503,196.252335 11.973973,196.956024 10.161272,197.984177 
	C9.546913,195.561356 8.932553,193.138535 8.241315,190.346512 
z"/>
<path fill="#0D81A5" opacity="1.000000" stroke="none" 
	d="
M6.162153,163.988098 
	C6.116553,161.943817 6.070951,159.899521 6.418198,157.342316 
	C8.340350,155.586349 9.990236,154.464478 11.380179,153.081375 
	C24.321609,140.203690 37.177963,127.240097 50.181618,114.425850 
	C51.725719,112.904236 54.003941,112.127594 55.829498,111.343384 
	C54.500496,115.114563 53.283867,118.547981 51.894806,122.214386 
	C51.186584,122.976448 50.650799,123.505524 49.771912,124.095711 
	C47.869308,125.354065 46.158752,126.399063 44.774235,127.772675 
	C33.798206,138.662338 22.929668,149.660782 11.899407,160.494766 
	C10.343896,162.022598 8.091813,162.841217 6.162153,163.988098 
z"/>
<path fill="#0B769E" opacity="1.000000" stroke="none" 
	d="
M163.986649,7.165905 
	C166.358994,7.125924 168.731354,7.085945 171.522507,7.453254 
	C170.764359,9.603085 169.822937,11.577618 168.372269,13.050587 
	C158.818039,22.751652 149.116119,32.307301 139.566620,42.012959 
	C138.121628,43.481590 137.219589,45.484455 135.907318,47.403252 
	C135.482346,47.715157 135.227646,47.881176 134.601807,48.056858 
	C130.816956,48.962234 127.414406,49.875099 124.037003,50.441422 
	C125.241684,48.362904 126.189384,46.401951 127.637741,44.935467 
	C138.447220,33.990723 149.381317,23.169128 160.203262,12.236575 
	C161.672485,10.752337 162.735535,8.866043 163.986649,7.165905 
z"/>
<path fill="#065486" opacity="1.000000" stroke="none" 
	d="
M188.980774,9.165504 
	C191.726639,9.777453 194.472519,10.389400 197.521484,11.404894 
	C196.704041,13.218196 195.702866,14.746127 194.443420,16.018356 
	C186.756088,23.783638 178.941483,31.424431 171.342163,39.274048 
	C169.839264,40.826454 169.088867,43.107376 167.635803,45.107605 
	C166.565857,45.232262 165.851562,45.301651 164.851242,45.318161 
	C164.371887,45.280109 164.178558,45.294941 163.616211,45.229210 
	C161.555328,45.195892 159.863434,45.243137 157.981262,45.219727 
	C157.520065,45.114521 157.261902,45.037285 157.036743,44.562576 
	C158.219452,42.457191 159.139526,40.468872 160.584534,38.995277 
	C168.842285,30.574091 177.255493,22.305508 185.534576,13.904936 
	C186.890411,12.529230 187.842239,10.755358 188.980774,9.165504 
z"/>
<path fill="#001E57" opacity="1.000000" stroke="none" 
	d="
M60.794022,218.999542 
	C58.886070,220.142990 56.686699,220.981842 55.119450,222.481384 
	C47.393673,229.873398 39.835445,237.440536 31.903709,245.170700 
	C29.740887,242.839340 27.892447,240.283157 26.313311,237.305038 
	C27.301224,236.485474 28.156567,236.225815 28.717903,235.669495 
	C36.967777,227.493546 45.197853,219.297241 53.366844,211.040680 
	C54.133793,210.265518 54.456871,209.051163 55.149624,208.080292 
	C55.313217,208.119873 55.644619,208.178635 55.739944,208.515442 
	C56.914772,210.894730 57.994278,212.937225 59.141838,215.287506 
	C59.737934,216.730057 60.265980,217.864807 60.794022,218.999542 
z"/>
<path fill="#0D81A5" opacity="1.000000" stroke="none" 
	d="
M163.545807,7.105896 
	C162.735535,8.866043 161.672485,10.752337 160.203262,12.236575 
	C149.381317,23.169128 138.447220,33.990723 127.637741,44.935467 
	C126.189384,46.401951 125.241684,48.362904 123.780777,50.595493 
	C122.994499,51.413685 122.489578,51.731258 121.611183,52.046494 
	C117.827858,53.365894 114.417999,54.687637 111.028915,55.648857 
	C112.196640,53.528534 113.084328,51.512356 114.531227,50.049179 
	C127.034378,37.405346 139.660538,24.883217 152.182297,12.257648 
	C153.660034,10.767656 154.729767,8.873008 155.988632,7.165946 
	C158.360748,7.125926 160.732849,7.085905 163.545807,7.105896 
z"/>
<path fill="#012660" opacity="1.000000" stroke="none" 
	d="
M54.986031,208.040726 
	C54.456871,209.051163 54.133793,210.265518 53.366844,211.040680 
	C45.197853,219.297241 36.967777,227.493546 28.717903,235.669495 
	C28.156567,236.225815 27.301224,236.485474 26.239014,236.961578 
	C24.608692,234.610855 23.321974,232.181625 22.261906,229.226395 
	C30.590487,220.702148 38.659470,212.669998 46.824287,204.736481 
	C48.318443,203.284683 50.202602,202.234268 51.989418,201.245071 
	C52.120422,201.657959 52.168747,201.824341 52.291191,202.313843 
	C53.238888,204.438202 54.112457,206.239456 54.986031,208.040726 
z"/>
<path fill="#022F68" opacity="1.000000" stroke="none" 
	d="
M51.906738,200.998581 
	C50.202602,202.234268 48.318443,203.284683 46.824287,204.736481 
	C38.659470,212.669998 30.590487,220.702148 22.197107,228.877563 
	C20.613199,226.621216 19.320744,224.187683 18.256899,221.227692 
	C26.943703,212.347427 35.367863,203.958572 43.892254,195.672836 
	C45.382206,194.224609 47.293678,193.210037 49.068333,192.296204 
	C49.618511,193.443329 50.110828,194.289398 50.683846,195.505585 
	C51.145271,197.583313 51.526005,199.290939 51.906738,200.998581 
z"/>
<path fill="#08608F" opacity="1.000000" stroke="none" 
	d="
M188.573380,9.105347 
	C187.842239,10.755358 186.890411,12.529230 185.534576,13.904936 
	C177.255493,22.305508 168.842285,30.574091 160.584534,38.995277 
	C159.139526,40.468872 158.219452,42.457191 156.617523,44.643955 
	C154.780472,45.293865 153.382858,45.507607 151.576309,45.628128 
	C149.767410,45.576740 148.367462,45.618576 146.988892,45.259373 
	C148.159348,42.919876 148.982605,40.663799 150.511444,39.095585 
	C159.101151,30.284586 167.890182,21.668238 176.532074,12.907427 
	C177.890152,11.530667 178.844147,9.755291 179.984970,8.164223 
	C182.711975,8.457878 185.438980,8.751535 188.573380,9.105347 
z"/>
<path fill="#022F68" opacity="1.000000" stroke="none" 
	d="
M221.097595,18.950855 
	C223.264084,19.760569 225.430557,20.570280 227.743790,21.978943 
	C226.799362,24.012802 225.848450,25.585903 224.593582,26.859528 
	C217.950958,33.601444 211.184082,40.221432 204.576553,46.997078 
	C203.121948,48.488686 202.138840,50.440075 200.602936,52.114830 
	C199.364975,51.955261 198.462662,51.860603 197.283447,51.534073 
	C195.300583,50.650745 193.594635,49.999290 192.035370,49.018074 
	C201.820541,38.775826 211.459076,28.863340 221.097595,18.950855 
z"/>
<path fill="#05497D" opacity="1.000000" stroke="none" 
	d="
M167.991455,45.052330 
	C169.088867,43.107376 169.839264,40.826454 171.342163,39.274048 
	C178.941483,31.424431 186.756088,23.783638 194.443420,16.018356 
	C195.702866,14.746127 196.704041,13.218196 197.901398,11.486177 
	C200.857605,11.906146 203.736969,12.648380 206.573334,13.856399 
	C197.941940,23.126020 189.323349,31.900785 180.794250,40.761703 
	C179.335709,42.276978 178.259583,44.160336 176.670898,45.920238 
	C175.886246,46.019634 175.437515,46.072445 174.596161,46.042587 
	C173.138641,45.929848 172.073730,45.899776 170.718353,45.752636 
	C169.615738,45.441154 168.803589,45.246738 167.991455,45.052330 
z"/>
<path fill="#1EE4E0" opacity="1.000000" stroke="none" 
	d="
M80.583870,28.949673 
	C80.106445,30.285658 79.508331,31.912035 78.398163,33.029873 
	C63.036602,48.497448 47.615147,63.905655 32.166588,79.286438 
	C31.137804,80.310707 29.772598,80.997070 28.219913,81.899994 
	C32.202923,75.517807 36.225338,68.844017 40.921906,62.684250 
	C49.970661,50.816383 61.429092,41.468700 73.589142,32.963814 
	C75.694504,31.491299 78.007835,30.316135 80.583870,28.949673 
z"/>
<path fill="#012660" opacity="1.000000" stroke="none" 
	d="
M200.938599,52.179741 
	C202.138840,50.440075 203.121948,48.488686 204.576553,46.997078 
	C211.184082,40.221432 217.950958,33.601444 224.593582,26.859528 
	C225.848450,25.585903 226.799362,24.012802 227.971222,22.234917 
	C230.714417,23.251549 233.376953,24.611158 236.226471,26.242268 
	C228.782867,34.335632 221.108780,42.115929 213.560226,50.016178 
	C212.135269,51.507519 211.209824,53.476105 209.775269,55.607033 
	C209.325500,56.010128 209.154358,56.030655 208.714111,55.845695 
	C206.827148,54.958912 205.209274,54.277615 203.330719,53.430347 
	C202.359573,52.902836 201.649078,52.541286 200.938599,52.179741 
z"/>
<path fill="#0B769E" opacity="1.000000" stroke="none" 
	d="
M6.094928,164.434296 
	C8.091813,162.841217 10.343896,162.022598 11.899407,160.494766 
	C22.929668,149.660782 33.798206,138.662338 44.774235,127.772675 
	C46.158752,126.399063 47.869308,125.354065 49.742676,124.507843 
	C49.297222,128.258514 48.537907,131.658173 47.432682,135.072876 
	C45.350655,136.265747 43.384098,137.209976 41.915398,138.658859 
	C31.528378,148.905731 21.268154,159.281052 10.896314,169.543457 
	C9.526031,170.899277 7.752732,171.847809 6.166078,172.984970 
	C6.119955,170.283478 6.073831,167.582001 6.094928,164.434296 
z"/>
<path fill="#0F8BAB" opacity="1.000000" stroke="none" 
	d="
M55.941872,111.005638 
	C54.003941,112.127594 51.725719,112.904236 50.181618,114.425850 
	C37.177963,127.240097 24.321609,140.203690 11.380179,153.081375 
	C9.990236,154.464478 8.340350,155.586349 6.488496,156.908813 
	C6.119276,154.944565 6.072607,152.900894 6.094913,150.423843 
	C8.096645,148.838913 10.358685,148.020233 11.911256,146.484360 
	C27.544962,131.018906 43.042221,115.415611 58.645084,99.918777 
	C60.126938,98.446999 62.065304,97.434868 64.003288,96.510506 
	C62.163883,100.538712 60.112926,104.265755 57.859398,108.225723 
	C57.085171,109.307632 56.513519,110.156631 55.941872,111.005638 
z"/>
<path fill="#0F8BAB" opacity="1.000000" stroke="none" 
	d="
M155.554581,7.103590 
	C154.729767,8.873008 153.660034,10.767656 152.182297,12.257648 
	C139.660538,24.883217 127.034378,37.405346 114.531227,50.049179 
	C113.084328,51.512356 112.196640,53.528534 110.823166,55.879543 
	C109.729095,57.026039 108.861534,57.581318 107.645462,58.208885 
	C103.865257,60.154045 100.433586,62.026917 97.001907,63.899788 
	C98.132637,61.967979 98.922325,59.699074 100.446960,58.156609 
	C115.366493,43.062508 130.431946,28.112722 145.378784,13.045381 
	C146.831909,11.580541 147.767548,9.602348 148.966919,7.513165 
	C151.033813,7.123001 153.077179,7.082119 155.554581,7.103590 
z"/>
<path fill="#096C97" opacity="1.000000" stroke="none" 
	d="
M6.100129,173.390610 
	C7.752732,171.847809 9.526031,170.899277 10.896314,169.543457 
	C21.268154,159.281052 31.528378,148.905731 41.915398,138.658859 
	C43.384098,137.209976 45.350655,136.265747 47.520802,135.044876 
	C47.954826,135.001816 48.131634,134.947632 48.004456,135.324600 
	C47.330547,138.794495 46.783813,141.887405 46.092262,145.199921 
	C45.670067,145.624039 45.392685,145.828552 45.115303,146.033066 
	C42.893398,147.372971 40.323235,148.353790 38.508640,150.113663 
	C29.693903,158.662643 21.100479,167.439407 12.378311,176.084671 
	C10.985859,177.464844 9.337576,178.586914 7.484633,179.906067 
	C6.785861,177.921310 6.410021,175.858780 6.100129,173.390610 
z"/>
<path fill="#0A6B96" opacity="1.000000" stroke="none" 
	d="
M179.627167,7.969430 
	C178.844147,9.755291 177.890152,11.530667 176.532074,12.907427 
	C167.890182,21.668238 159.101151,30.284586 150.511444,39.095585 
	C148.982605,40.663799 148.159348,42.919876 146.745941,45.340828 
	C145.983002,45.945763 145.484406,46.068207 144.579971,46.169647 
	C141.471542,46.512497 138.768982,46.876350 136.066406,47.240204 
	C137.219589,45.484455 138.121628,43.481590 139.566620,42.012959 
	C149.116119,32.307301 158.818039,22.751652 168.372269,13.050587 
	C169.822937,11.577618 170.764359,9.603085 171.963623,7.511333 
	C174.413727,7.366295 176.841537,7.570467 179.627167,7.969430 
z"/>
<path fill="#044177" opacity="1.000000" stroke="none" 
	d="
M14.897998,213.059708 
	C14.262938,211.314133 13.627876,209.568573 13.146561,207.169464 
	C22.549120,197.173431 31.754955,187.787537 41.098919,178.541214 
	C42.323330,177.329590 44.255966,176.833679 45.956345,176.361023 
	C46.413200,178.138077 46.774288,179.560379 47.103756,181.358734 
	C47.060841,182.488068 47.049549,183.241379 46.701035,184.067429 
	C38.571178,191.597855 30.825329,199.105408 22.958797,206.484299 
	C20.435806,208.850876 17.593964,210.877533 14.897998,213.059708 
z"/>
<path fill="#033970" opacity="1.000000" stroke="none" 
	d="
M14.935917,213.428925 
	C17.593964,210.877533 20.435806,208.850876 22.958797,206.484299 
	C30.825329,199.105408 38.571178,191.597855 46.756027,184.404358 
	C47.763229,186.107727 48.378220,187.546906 48.979404,189.362686 
	C48.980556,190.491241 48.995518,191.243210 49.010475,191.995178 
	C47.293678,193.210037 45.382206,194.224609 43.892254,195.672836 
	C35.367863,203.958572 26.943703,212.347427 18.193975,220.877945 
	C16.926243,218.635803 15.950041,216.216980 14.935917,213.428925 
z"/>
<path fill="#054A7E" opacity="1.000000" stroke="none" 
	d="
M45.860580,176.006287 
	C44.255966,176.833679 42.323330,177.329590 41.098919,178.541214 
	C31.754955,187.787537 22.549120,197.173431 13.125053,206.807449 
	C11.999084,204.314926 11.048370,201.530884 10.129464,198.365509 
	C11.973973,196.956024 14.102503,196.252335 15.547160,194.846100 
	C23.767920,186.843918 31.806520,178.654938 39.958183,170.581100 
	C41.234547,169.316925 42.772518,168.316879 44.594437,167.099197 
	C44.999355,167.003693 45.157417,166.943192 45.104053,167.294861 
	C45.345196,168.764557 45.639702,169.882584 45.892632,171.399429 
	C45.953075,172.860748 46.055092,173.923233 46.081490,175.240479 
	C45.957443,175.665573 45.909012,175.835922 45.860580,176.006287 
z"/>
<path fill="#034076" opacity="1.000000" stroke="none" 
	d="
M177.006790,45.873657 
	C178.259583,44.160336 179.335709,42.276978 180.794250,40.761703 
	C189.323349,31.900785 197.941940,23.126020 206.815613,14.136017 
	C208.926117,14.421031 210.751343,14.892209 212.733871,15.967804 
	C211.678574,18.130232 210.606003,19.826241 209.229721,21.222988 
	C202.329010,28.226181 195.298187,35.101734 188.437225,42.143078 
	C186.982880,43.635654 186.046631,45.633068 184.556259,47.345013 
	C183.815384,47.278141 183.389954,47.264137 182.590271,47.158951 
	C180.479614,46.669731 178.743195,46.271694 177.006790,45.873657 
z"/>
<path fill="#02386F" opacity="1.000000" stroke="none" 
	d="
M184.871689,47.397881 
	C186.046631,45.633068 186.982880,43.635654 188.437225,42.143078 
	C195.298187,35.101734 202.329010,28.226181 209.229721,21.222988 
	C210.606003,19.826241 211.678574,18.130232 212.970703,16.229399 
	C215.577957,16.726753 218.105698,17.566929 220.865509,18.678980 
	C211.459076,28.863340 201.820541,38.775826 191.720703,48.953865 
	C190.833405,49.195961 190.407440,49.172501 189.659180,49.030262 
	C187.848495,48.406952 186.360092,47.902416 184.871689,47.397881 
z"/>
<path fill="#19C9D1" opacity="1.000000" stroke="none" 
	d="
M14.720135,108.977165 
	C14.816632,109.147156 14.653749,109.398994 14.320192,109.803680 
	C14.269886,109.668114 14.373631,109.368935 14.720135,108.977165 
z"/>
<path fill="#1EE4E0" opacity="1.000000" stroke="none" 
	d="
M26.717541,82.970581 
	C26.808126,83.135506 26.644655,83.388420 26.318760,83.801392 
	C26.268541,83.666847 26.370926,83.365875 26.717541,82.970581 
z"/>
<path fill="#1EE4E0" opacity="1.000000" stroke="none" 
	d="
M81.716675,28.137203 
	C81.769958,28.387230 81.532791,28.573915 81.073883,28.844639 
	C81.071358,28.679121 81.262718,28.394182 81.716675,28.137203 
z"/>
<path fill="#014200" opacity="1.000000" stroke="none" 
	d="
M265.135803,111.902206 
	C271.699554,123.590569 274.706757,136.410324 275.819366,149.529678 
	C278.256622,178.268311 271.537933,204.855179 254.344711,228.194092 
	C235.003860,254.448303 209.142624,270.474274 176.617767,275.001953 
	C154.351913,278.101440 132.853104,275.346069 112.361412,265.041504 
	C122.098358,254.603882 131.962936,244.746902 141.657944,234.725830 
	C143.157928,233.175415 143.880615,230.873016 145.382111,228.923431 
	C148.529175,229.262024 151.256882,229.595551 154.436737,229.988159 
	C157.920700,230.033005 160.952530,230.018753 164.425171,230.045258 
	C168.905197,229.419510 172.944366,228.753006 177.392105,228.089493 
	C178.788757,227.973938 179.829285,228.015747 180.757019,227.712524 
	C192.496140,223.875610 202.922089,217.754868 211.313736,208.690125 
	C219.642853,199.692886 226.237350,189.588974 228.073273,177.038879 
	C228.069489,177.015305 228.034454,177.047714 228.202393,176.928741 
	C228.566528,176.607071 228.688278,176.366669 228.821442,175.656616 
	C229.279892,171.477554 229.652496,167.730453 230.073517,163.531830 
	C230.053818,160.048965 229.985703,157.017593 229.938187,153.576935 
	C229.633926,150.434418 229.309067,147.701187 229.320374,144.901566 
	C231.199539,143.628357 232.879715,142.560257 234.263031,141.192017 
	C242.613525,132.932587 250.853836,124.561417 259.235870,116.334480 
	C260.976135,114.626411 263.157654,113.367905 265.135803,111.902206 
z"/>
<path fill="#054E02" opacity="1.000000" stroke="none" 
	d="
M265.055603,111.555054 
	C263.157654,113.367905 260.976135,114.626411 259.235870,116.334480 
	C250.853836,124.561417 242.613525,132.932587 234.263031,141.192017 
	C232.879715,142.560257 231.199539,143.628357 229.186493,144.587158 
	C228.151794,142.871109 227.587173,141.403061 226.985352,139.577240 
	C225.940460,136.808411 224.932755,134.397324 223.869568,131.676544 
	C223.571396,130.569885 223.328705,129.772919 223.440552,128.956604 
	C225.651596,127.670303 227.730759,126.634827 229.327972,125.098335 
	C238.709534,116.073456 247.978638,106.931686 257.285645,97.829308 
	C259.848877,102.288834 262.412140,106.748367 265.055603,111.555054 
z"/>
<path fill="#054E02" opacity="1.000000" stroke="none" 
	d="
M144.962753,228.918365 
	C143.880615,230.873016 143.157928,233.175415 141.657944,234.725830 
	C131.962936,244.746902 122.098358,254.603882 112.106476,264.805176 
	C111.923584,265.095734 111.438248,265.003845 111.030518,264.767242 
	C110.373276,264.316620 110.093979,264.153656 109.784897,264.041687 
	C105.945480,261.902588 102.106071,259.763489 98.351547,257.178223 
	C108.098335,247.171677 117.800247,237.650986 127.372177,228.001373 
	C128.586060,226.777634 129.119095,224.878555 130.162384,223.252365 
	C130.357224,223.212372 130.748215,223.143524 131.007202,223.387939 
	C134.147095,224.766479 137.027985,225.900604 140.180359,227.236176 
	C141.955475,227.931198 143.459122,228.424774 144.962753,228.918365 
z"/>
<path fill="#095905" opacity="1.000000" stroke="none" 
	d="
M129.967545,223.292358 
	C129.119095,224.878555 128.586060,226.777634 127.372177,228.001373 
	C117.800247,237.650986 108.098335,247.171677 98.137909,256.912506 
	C94.659836,254.918030 91.480286,252.743073 88.443352,250.221344 
	C89.425026,249.371780 90.407310,249.013321 91.081444,248.344330 
	C100.101830,239.393112 109.105606,230.424591 118.029839,221.377853 
	C119.019325,220.374756 119.493935,218.863739 120.522888,217.739441 
	C123.881477,219.691193 126.924507,221.491776 129.967545,223.292358 
z"/>
<path fill="#095905" opacity="1.000000" stroke="none" 
	d="
M257.156311,97.510117 
	C247.978638,106.931686 238.709534,116.073456 229.327972,125.098335 
	C227.730759,126.634827 225.651596,127.670303 223.234741,128.693115 
	C221.215271,126.242126 219.756149,124.035255 218.226517,121.616791 
	C218.156006,121.405197 217.994568,120.989365 218.278259,120.816788 
	C228.332581,110.968475 238.127075,101.316536 247.837830,91.581062 
	C248.834732,90.581635 249.330872,89.082741 250.059387,87.815613 
	C252.381912,90.940720 254.704437,94.065826 257.156311,97.510117 
z"/>
<path fill="#1D7C16" opacity="1.000000" stroke="none" 
	d="
M70.111267,231.917480 
	C68.098900,229.181534 66.086540,226.445587 64.293701,223.228973 
	C65.740097,221.926773 67.136665,221.276718 68.167244,220.256821 
	C77.193329,211.324402 86.175354,202.346970 95.100632,193.313919 
	C95.975258,192.428711 96.381744,191.080933 97.194557,189.997284 
	C97.383591,190.046722 97.768623,190.113464 97.863342,190.454071 
	C98.693474,192.527954 99.428886,194.261246 100.220215,196.305145 
	C100.876114,197.678421 101.476120,198.741043 101.905113,200.103333 
	C91.193161,210.907822 80.652214,221.412659 70.111267,231.917480 
z"/>
<path fill="#16710F" opacity="1.000000" stroke="none" 
	d="
M70.243790,232.221893 
	C80.652214,221.412659 91.193161,210.907822 102.204834,200.217926 
	C103.811493,200.962158 104.947411,201.891464 106.114960,203.133789 
	C107.190269,204.927109 108.233948,206.407379 108.971443,208.058319 
	C99.533051,217.229477 90.431259,226.261261 81.238243,235.199219 
	C79.733841,236.661880 77.827354,237.710999 76.106697,238.951263 
	C74.196564,236.809601 72.286446,234.667953 70.243790,232.221893 
z"/>
<path fill="#25871D" opacity="1.000000" stroke="none" 
	d="
M97.005524,189.947861 
	C96.381744,191.080933 95.975258,192.428711 95.100632,193.313919 
	C86.175354,202.346970 77.193329,211.324402 68.167244,220.256821 
	C67.136665,221.276718 65.740097,221.926773 64.198723,222.897858 
	C62.985439,221.870636 62.086666,220.693893 60.990959,219.258347 
	C60.265980,217.864807 59.737934,216.730057 59.470642,215.215317 
	C61.378506,213.499237 63.141376,212.281937 64.653961,210.807800 
	C74.457634,201.253220 84.206795,191.642685 94.123520,182.091095 
	C94.273209,182.131714 94.577499,182.190338 94.669662,182.553986 
	C95.509727,185.261032 96.257629,187.604446 97.005524,189.947861 
z"/>
<path fill="#1C7B15" opacity="1.000000" stroke="none" 
	d="
M225.552429,65.780830 
	C227.546143,67.055374 229.539871,68.329918 231.673157,70.184120 
	C221.246964,81.496643 210.681183,92.229500 199.798904,102.874573 
	C198.315811,102.199051 197.149231,101.611305 195.773788,100.780869 
	C194.312286,99.715858 193.059647,98.893539 192.106186,97.900093 
	C197.487579,92.768646 202.543976,87.781494 207.658783,82.854996 
	C213.596573,77.135826 219.585632,71.469879 225.552429,65.780830 
z"/>
<path fill="#0D6208" opacity="1.000000" stroke="none" 
	d="
M249.908844,87.543304 
	C249.330872,89.082741 248.834732,90.581635 247.837830,91.581062 
	C238.127075,101.316536 228.332581,110.968475 217.969528,120.683800 
	C215.525085,118.164459 213.673050,115.605522 212.167343,112.971825 
	C214.077118,111.696838 215.787369,110.645393 217.179642,109.271667 
	C224.883957,101.670044 232.464706,93.942764 240.204391,86.377808 
	C241.692642,84.923149 243.700516,84.000099 245.468689,82.831818 
	C246.898560,84.311546 248.328430,85.791275 249.908844,87.543304 
z"/>
<path fill="#23851C" opacity="1.000000" stroke="none" 
	d="
M225.307007,65.527069 
	C219.585632,71.469879 213.596573,77.135826 207.658783,82.854996 
	C202.543976,87.781494 197.487579,92.768646 191.761612,97.893356 
	C190.428848,98.001068 189.739838,97.944405 188.912598,97.598465 
	C187.493103,96.578865 186.211838,95.848541 185.012115,94.776459 
	C186.295044,92.890381 187.355453,91.206764 188.721069,89.824745 
	C196.611847,81.839134 204.616760,73.965996 212.479935,65.953613 
	C214.185608,64.215584 215.470139,62.064259 216.948639,60.103291 
	C217.451050,60.330990 217.953445,60.558689 218.729767,60.833130 
	C221.022964,62.344353 223.042267,63.808830 225.307007,65.527069 
z"/>
<path fill="#16710F" opacity="1.000000" stroke="none" 
	d="
M200.115402,102.962357 
	C210.681183,92.229500 221.246964,81.496643 231.879745,70.437988 
	C234.172836,71.900726 236.398926,73.689270 238.623093,76.041595 
	C227.982208,87.098511 217.343262,97.591644 206.430878,107.942474 
	C204.768051,106.871155 203.378632,105.942139 201.834656,104.779770 
	C201.158524,104.018410 200.636963,103.490379 200.115402,102.962357 
z"/>
<path fill="#0D6208" opacity="1.000000" stroke="none" 
	d="
M120.207329,217.588287 
	C119.493935,218.863739 119.019325,220.374756 118.029839,221.377853 
	C109.105606,230.424591 100.101830,239.393112 91.081444,248.344330 
	C90.407310,249.013321 89.425026,249.371780 88.242149,249.951508 
	C86.065735,248.501541 84.233154,246.974625 82.461029,244.948532 
	C91.976280,235.143845 101.470192,225.877335 110.833160,216.480347 
	C111.923279,215.386261 112.288849,213.570236 113.318130,212.157715 
	C115.817207,213.796417 117.988487,215.366318 120.171432,217.099243 
	C120.183098,217.262283 120.207329,217.588287 120.207329,217.588287 
z"/>
<path fill="#11690B" opacity="1.000000" stroke="none" 
	d="
M206.704300,108.084770 
	C217.343262,97.591644 227.982208,87.098511 238.791046,76.325531 
	C241.016647,78.106773 243.072357,80.167877 245.298386,82.530396 
	C243.700516,84.000099 241.692642,84.923149 240.204391,86.377808 
	C232.464706,93.942764 224.883957,101.670044 217.179642,109.271667 
	C215.787369,110.645393 214.077118,111.696838 211.927338,112.848053 
	C210.903046,112.487617 210.465118,112.176193 209.873642,111.593643 
	C208.714844,110.243271 207.709564,109.164024 206.704300,108.084770 
z"/>
<path fill="#11690B" opacity="1.000000" stroke="none" 
	d="
M112.990326,212.088913 
	C112.288849,213.570236 111.923279,215.386261 110.833160,216.480347 
	C101.470192,225.877335 91.976280,235.143845 82.289062,244.670349 
	C80.171646,243.104599 78.286659,241.317825 76.254189,239.241150 
	C77.827354,237.710999 79.733841,236.661880 81.238243,235.199219 
	C90.431259,226.261261 99.533051,217.229477 109.195312,208.199432 
	C109.920425,208.462326 110.115486,208.754776 110.321793,209.261536 
	C110.486771,209.739777 110.712898,209.904114 111.004509,209.984955 
	C110.997589,210.001053 111.026405,209.981415 111.131973,210.257233 
	C111.821800,211.051666 112.406059,211.570297 112.990326,212.088913 
z"/>
<path fill="#014200" opacity="1.000000" stroke="none" 
	d="
M109.947487,264.226227 
	C110.093979,264.153656 110.373276,264.316620 110.792404,264.701721 
	C110.637352,264.793854 110.353371,264.639862 109.947487,264.226227 
z"/>
<path fill="#91F493" opacity="1.000000" stroke="none" 
	d="
M96.771713,64.150131 
	C100.433586,62.026917 103.865257,60.154045 107.621002,58.559216 
	C107.005852,60.348286 106.311096,62.101715 105.089989,63.333241 
	C91.282555,77.258453 77.429466,91.139153 63.474880,104.916580 
	C62.048542,106.324806 59.883972,106.985321 58.061974,107.992805 
	C60.112926,104.265755 62.163883,100.538712 64.373505,96.487350 
	C73.387657,83.747116 83.913109,73.014153 96.771713,64.150131 
z"/>
<path fill="#65CC60" opacity="1.000000" stroke="none" 
	d="
M151.985245,45.721352 
	C153.382858,45.507607 154.780472,45.293865 156.597305,44.998741 
	C157.261902,45.037285 157.520065,45.114521 157.922058,45.641197 
	C157.002960,47.954048 156.287140,50.107929 154.853607,51.546703 
	C120.505127,86.020866 86.100517,120.439278 51.603935,154.765152 
	C49.965691,156.395279 47.388630,157.081894 45.248787,158.207916 
	C45.174564,157.658401 45.100342,157.108871 44.956917,156.291046 
	C45.073761,154.861938 45.259811,153.701141 45.967686,152.185455 
	C47.941517,150.771957 49.563927,149.884064 50.820629,148.629761 
	C83.527672,115.985611 116.207359,83.313995 148.834381,50.589912 
	C150.169388,49.250935 150.947617,47.356827 151.985245,45.721352 
z"/>
<path fill="#6BD367" opacity="1.000000" stroke="none" 
	d="
M151.576309,45.628128 
	C150.947617,47.356827 150.169388,49.250935 148.834381,50.589912 
	C116.207359,83.313995 83.527672,115.985611 50.820629,148.629761 
	C49.563927,149.884064 47.941517,150.771957 46.136143,151.876724 
	C45.530869,150.211899 45.278965,148.500916 45.071182,146.411499 
	C45.392685,145.828552 45.670067,145.624039 46.435493,145.176392 
	C48.546341,143.857788 50.405594,143.019470 51.757183,141.671967 
	C81.829430,111.690544 111.861595,81.668800 141.823135,51.576828 
	C143.245651,50.148117 143.948059,48.002438 144.985825,46.190651 
	C145.484406,46.068207 145.983002,45.945763 146.724548,45.741867 
	C148.367462,45.618576 149.767410,45.576740 151.576309,45.628128 
z"/>
<path fill="#2A8E23" opacity="1.000000" stroke="none" 
	d="
M216.684052,59.886734 
	C215.470139,62.064259 214.185608,64.215584 212.479935,65.953613 
	C204.616760,73.965996 196.611847,81.839134 188.721069,89.824745 
	C187.355453,91.206764 186.295044,92.890381 184.639465,94.717789 
	C183.724228,94.801842 183.263168,94.602798 182.651855,94.328529 
	C182.293869,94.156853 182.078751,94.081482 181.481506,94.033096 
	C178.958588,93.408844 176.810440,92.778679 174.972015,91.975166 
	C185.982361,81.227272 196.713821,70.683487 207.329987,60.024845 
	C208.266693,59.084393 208.449997,57.393517 208.983215,56.051178 
	C209.154358,56.030655 209.325500,56.010128 209.753830,55.962959 
	C212.147156,57.180943 214.283325,58.425560 216.684052,59.886734 
z"/>
<path fill="#5EC659" opacity="1.000000" stroke="none" 
	d="
M45.173805,158.549026 
	C47.388630,157.081894 49.965691,156.395279 51.603935,154.765152 
	C86.100517,120.439278 120.505127,86.020866 154.853607,51.546703 
	C156.287140,50.107929 157.002960,47.954048 158.112335,45.711853 
	C159.863434,45.243137 161.555328,45.195892 163.590424,45.566872 
	C162.963943,47.481716 162.223373,49.206936 160.991302,50.441742 
	C124.225334,87.289604 87.423759,124.102005 50.554508,160.846451 
	C49.129169,162.266953 46.979885,162.961060 45.167931,163.993637 
	C45.144894,162.292465 45.121861,160.591309 45.173805,158.549026 
z"/>
<path fill="#5AC254" opacity="1.000000" stroke="none" 
	d="
M45.109554,164.374237 
	C46.979885,162.961060 49.129169,162.266953 50.554508,160.846451 
	C87.423759,124.102005 124.225334,87.289604 160.991302,50.441742 
	C162.223373,49.206936 162.963943,47.481716 163.959412,45.647430 
	C164.178558,45.294941 164.371887,45.280109 165.056854,45.501122 
	C165.027649,47.329193 164.973907,49.386509 163.918503,50.446419 
	C126.206230,88.319542 88.413277,126.112434 50.556892,163.841583 
	C49.137024,165.256683 46.974083,165.926224 45.157417,166.943192 
	C45.157417,166.943192 44.999355,167.003693 44.918354,167.028198 
	C44.908630,166.286743 44.979904,165.520798 45.109554,164.374237 
z"/>
<path fill="#7EE47B" opacity="1.000000" stroke="none" 
	d="
M47.866707,135.029816 
	C48.537907,131.658173 49.297222,128.258514 50.085777,124.446739 
	C50.650799,123.505524 51.186584,122.976448 52.235931,122.149368 
	C54.657978,120.575081 56.835682,119.569710 58.434055,117.981369 
	C78.395866,98.144608 98.303421,78.252808 118.119453,58.270565 
	C119.795189,56.580769 120.714134,54.140476 121.984657,52.048836 
	C122.489578,51.731258 122.994499,51.413685 123.755646,50.942036 
	C127.414406,49.875099 130.816956,48.962234 134.582306,48.412148 
	C133.902924,50.409878 133.117172,52.300255 131.780655,53.642021 
	C105.751846,79.772758 79.677582,105.858406 53.527470,131.867676 
	C52.109978,133.277527 49.947388,133.938217 48.131634,134.947632 
	C48.131634,134.947632 47.954826,135.001816 47.866707,135.029816 
z"/>
<path fill="#89ED87" opacity="1.000000" stroke="none" 
	d="
M121.611183,52.046494 
	C120.714134,54.140476 119.795189,56.580769 118.119453,58.270565 
	C98.303421,78.252808 78.395866,98.144608 58.434055,117.981369 
	C56.835682,119.569710 54.657978,120.575081 52.408367,121.916389 
	C53.283867,118.547981 54.500496,115.114563 55.829498,111.343384 
	C56.513519,110.156631 57.085171,109.307632 57.859398,108.225723 
	C59.883972,106.985321 62.048542,106.324806 63.474880,104.916580 
	C77.429466,91.139153 91.282555,77.258453 105.089989,63.333241 
	C106.311096,62.101715 107.005852,60.348286 107.969528,58.486931 
	C108.861534,57.581318 109.729095,57.026039 110.802399,56.240074 
	C114.417999,54.687637 117.827858,53.365894 121.611183,52.046494 
z"/>
<path fill="#73DA70" opacity="1.000000" stroke="none" 
	d="
M48.004456,135.324600 
	C49.947388,133.938217 52.109978,133.277527 53.527470,131.867676 
	C79.677582,105.858406 105.751846,79.772758 131.780655,53.642021 
	C133.117172,52.300255 133.902924,50.409878 134.964615,48.419640 
	C135.227646,47.881176 135.482346,47.715157 135.907318,47.403248 
	C138.768982,46.876350 141.471542,46.512497 144.579971,46.169647 
	C143.948059,48.002438 143.245651,50.148117 141.823135,51.576828 
	C111.861595,81.668800 81.829430,111.690544 51.757183,141.671967 
	C50.405594,143.019470 48.546341,143.857788 46.580307,144.956802 
	C46.783813,141.887405 47.330547,138.794495 48.004456,135.324600 
z"/>
<path fill="#57BF52" opacity="1.000000" stroke="none" 
	d="
M45.104053,167.294861 
	C46.974083,165.926224 49.137024,165.256683 50.556892,163.841583 
	C88.413277,126.112434 126.206230,88.319542 163.918503,50.446419 
	C164.973907,49.386509 165.027649,47.329193 165.342865,45.554001 
	C165.851562,45.301651 166.565857,45.232262 167.635803,45.107601 
	C168.803589,45.246738 169.615738,45.441154 170.648438,46.099060 
	C169.783752,48.003860 168.853317,49.599747 167.590820,50.864033 
	C128.675339,89.834450 89.735214,128.780304 50.751446,167.682388 
	C49.393860,169.037140 47.550926,169.905533 45.934208,171.000610 
	C45.639702,169.882584 45.345196,168.764557 45.104053,167.294861 
z"/>
<path fill="#2C9024" opacity="1.000000" stroke="none" 
	d="
M93.973824,182.050491 
	C84.206795,191.642685 74.457634,201.253220 64.653961,210.807800 
	C63.141376,212.281937 61.378506,213.499237 59.402588,214.907501 
	C57.994278,212.937225 56.914772,210.894730 56.101963,208.417175 
	C57.930378,206.803375 59.648933,205.783356 61.028263,204.420120 
	C69.724213,195.825714 78.307899,187.117538 87.026207,178.546143 
	C88.504066,177.093201 90.453712,176.120117 92.391785,175.236359 
	C93.056725,177.715088 93.515274,179.882797 93.973824,182.050491 
z"/>
<path fill="#32982A" opacity="1.000000" stroke="none" 
	d="
M92.185394,174.925339 
	C90.453712,176.120117 88.504066,177.093201 87.026207,178.546143 
	C78.307899,187.117538 69.724213,195.825714 61.028263,204.420120 
	C59.648933,205.783356 57.930378,206.803375 56.006638,208.080353 
	C55.644619,208.178635 55.313217,208.119873 55.149624,208.080292 
	C54.112457,206.239456 53.238888,204.438202 52.635262,202.288177 
	C54.638306,200.758133 56.596973,199.806015 58.067764,198.358246 
	C67.385773,189.186096 76.563828,179.871841 85.874313,170.691940 
	C87.357315,169.229721 89.275185,168.208572 91.115280,167.346497 
	C91.584671,169.465271 91.930794,171.221054 92.246353,173.301178 
	C92.205658,174.058792 92.195526,174.492065 92.185394,174.925339 
z"/>
<path fill="#39A031" opacity="1.000000" stroke="none" 
	d="
M90.992012,166.983505 
	C89.275185,168.208572 87.357315,169.229721 85.874313,170.691940 
	C76.563828,179.871841 67.385773,189.186096 58.067764,198.358246 
	C56.596973,199.806015 54.638306,200.758133 52.561138,201.965073 
	C52.168747,201.824341 52.120422,201.657959 51.989418,201.245071 
	C51.526005,199.290939 51.145271,197.583313 51.052261,195.419693 
	C52.918182,193.784531 54.661201,192.771896 56.048092,191.399399 
	C65.756058,181.792114 75.339424,172.058380 85.100288,162.505722 
	C86.663239,160.976120 88.915031,160.150391 90.904480,159.424973 
	C91.088127,161.557693 91.215668,163.264709 91.269455,165.304642 
	C91.127800,166.086212 91.059906,166.534866 90.992012,166.983505 
z"/>
<path fill="#40A638" opacity="1.000000" stroke="none" 
	d="
M90.848373,158.999252 
	C88.915031,160.150391 86.663239,160.976120 85.100288,162.505722 
	C75.339424,172.058380 65.756058,181.792114 56.048092,191.399399 
	C54.661201,192.771896 52.918182,193.784531 50.971565,195.049591 
	C50.110828,194.289398 49.618511,193.443329 49.068333,192.296204 
	C48.995518,191.243210 48.980556,190.491241 49.315048,189.293304 
	C51.211040,187.629898 52.894558,186.550491 54.282349,185.173096 
	C64.893669,174.641556 75.401833,164.005600 86.069115,153.531494 
	C87.629410,151.999435 89.862167,151.152237 91.816498,150.333038 
	C91.863152,151.366653 91.877068,152.055374 91.710022,153.095276 
	C91.302162,155.297409 91.075272,157.148331 90.848373,158.999252 
z"/>
<path fill="#39A031" opacity="1.000000" stroke="none" 
	d="
M200.602936,52.114830 
	C201.649078,52.541286 202.359573,52.902836 203.026031,53.676369 
	C192.539917,64.673149 182.070190,75.231003 171.687302,85.873558 
	C170.233459,87.363762 169.205536,89.269485 167.607086,91.038734 
	C166.482071,91.161209 165.730453,91.227814 164.569839,91.213028 
	C162.773193,91.032341 161.385544,90.933052 160.023590,90.484215 
	C161.117294,88.505478 161.959137,86.656502 163.292145,85.284843 
	C169.331406,79.070450 175.456848,72.937119 181.653473,66.879158 
	C186.882828,61.766800 192.252701,56.798187 197.560364,51.765949 
	C198.462662,51.860603 199.364975,51.955261 200.602936,52.114830 
z"/>
<path fill="#3EA637" opacity="1.000000" stroke="none" 
	d="
M197.283447,51.534081 
	C192.252701,56.798187 186.882828,61.766800 181.653473,66.879158 
	C175.456848,72.937119 169.331406,79.070450 163.292145,85.284843 
	C161.959137,86.656502 161.117294,88.505478 159.624451,90.555275 
	C158.126404,91.087029 157.053207,91.198166 155.570282,91.256927 
	C154.363083,91.373009 153.565613,91.541473 152.599487,91.589111 
	C152.430832,91.468292 152.078461,91.249214 152.082001,90.874146 
	C153.286530,88.603577 154.197769,86.423332 155.735413,84.858643 
	C165.945831,74.468651 176.315689,64.235519 186.560806,53.879250 
	C187.913071,52.512299 188.851410,50.735840 189.981461,49.149040 
	C190.407440,49.172501 190.833405,49.195961 191.574036,49.283627 
	C193.594635,49.999290 195.300583,50.650745 197.283447,51.534081 
z"/>
<path fill="#55BC4D" opacity="1.000000" stroke="none" 
	d="
M45.892632,171.399429 
	C47.550926,169.905533 49.393860,169.037140 50.751446,167.682388 
	C89.735214,128.780304 128.675339,89.834450 167.590820,50.864033 
	C168.853317,49.599747 169.783752,48.003860 170.938904,46.216125 
	C172.073730,45.899776 173.138641,45.929848 174.574280,46.393497 
	C173.777039,48.570858 172.854019,50.557526 171.403168,52.020847 
	C156.928604,66.619881 142.338257,81.104141 127.871620,95.710960 
	C126.313568,97.284103 125.331406,99.427620 123.875710,101.555344 
	C114.864433,107.274940 107.994148,114.734238 101.542740,123.014183 
	C99.444099,124.209572 97.455345,125.132538 95.991264,126.584534 
	C81.036278,141.416046 66.185547,156.352646 51.243484,171.197266 
	C49.758808,172.672256 47.862415,173.732819 46.157112,174.985733 
	C46.055092,173.923233 45.953075,172.860748 45.892632,171.399429 
z"/>
<path fill="#4EB547" opacity="1.000000" stroke="none" 
	d="
M124.082108,101.306549 
	C125.331406,99.427620 126.313568,97.284103 127.871620,95.710960 
	C142.338257,81.104141 156.928604,66.619881 171.403168,52.020847 
	C172.854019,50.557526 173.777039,48.570858 174.966888,46.476166 
	C175.437515,46.072445 175.886246,46.019634 176.670898,45.920242 
	C178.743195,46.271694 180.479614,46.669731 182.511063,47.473999 
	C181.548767,49.408951 180.405960,51.051598 179.016159,52.448532 
	C166.913696,64.613075 154.740494,76.707352 142.667770,88.901184 
	C141.196487,90.387230 140.194687,92.338097 138.709106,94.250458 
	C136.929474,95.186638 135.416061,95.945908 133.542877,96.770805 
	C130.149429,98.326477 127.115768,99.816513 124.082108,101.306549 
z"/>
<path fill="#31972A" opacity="1.000000" stroke="none" 
	d="
M167.980469,90.982864 
	C169.205536,89.269485 170.233459,87.363762 171.687302,85.873558 
	C182.070190,75.231003 192.539917,64.673149 203.286713,53.842335 
	C205.209274,54.277615 206.827148,54.958912 208.714127,55.845695 
	C208.449997,57.393517 208.266693,59.084393 207.329987,60.024845 
	C196.713821,70.683487 185.982361,81.227272 174.640106,92.000465 
	C173.329620,92.190292 172.660797,92.181465 171.656799,92.072357 
	C170.207916,91.642342 169.094193,91.312607 167.980469,90.982864 
z"/>
<path fill="#47AE40" opacity="1.000000" stroke="none" 
	d="
M91.783752,149.988129 
	C89.862167,151.152237 87.629410,151.999435 86.069115,153.531494 
	C75.401833,164.005600 64.893669,174.641556 54.282349,185.173096 
	C52.894558,186.550491 51.211040,187.629898 49.328850,188.916718 
	C48.378220,187.546906 47.763229,186.107727 47.093246,184.331604 
	C47.049549,183.241379 47.060841,182.488068 47.428032,181.282959 
	C49.318447,179.592239 50.976891,178.477997 52.367996,177.094849 
	C64.269730,165.261276 76.069344,153.324295 88.045074,141.566528 
	C89.981041,139.665802 92.635559,138.496902 94.936531,137.372726 
	C94.271446,140.494263 93.627762,143.232803 92.801682,146.272980 
	C92.340767,147.712448 92.062263,148.850296 91.783752,149.988129 
z"/>
<path fill="#4FB748" opacity="1.000000" stroke="none" 
	d="
M94.957932,136.989731 
	C92.635559,138.496902 89.981041,139.665802 88.045074,141.566528 
	C76.069344,153.324295 64.269730,165.261276 52.367996,177.094849 
	C50.976891,178.477997 49.318447,179.592239 47.459656,180.906906 
	C46.774288,179.560379 46.413200,178.138077 45.956345,176.361023 
	C45.909012,175.835922 45.957443,175.665573 46.081490,175.240479 
	C47.862415,173.732819 49.758808,172.672256 51.243484,171.197266 
	C66.185547,156.352646 81.036278,141.416046 95.991264,126.584534 
	C97.455345,125.132538 99.444099,124.209572 101.460518,123.348770 
	C100.068596,127.072060 98.405472,130.487610 96.526016,134.112976 
	C95.859100,135.211792 95.408516,136.100754 94.957932,136.989731 
z"/>
<path fill="#46AD3E" opacity="1.000000" stroke="none" 
	d="
M138.975311,94.073547 
	C140.194687,92.338097 141.196487,90.387230 142.667770,88.901184 
	C154.740494,76.707352 166.913696,64.613075 179.016159,52.448532 
	C180.405960,51.051598 181.548767,49.408951 182.885315,47.565186 
	C183.389954,47.264137 183.815384,47.278141 184.556259,47.345013 
	C186.360092,47.902416 187.848495,48.406952 189.659180,49.030262 
	C188.851410,50.735840 187.913071,52.512299 186.560806,53.879250 
	C176.315689,64.235519 165.945831,74.468651 155.735413,84.858643 
	C154.197769,86.423332 153.286530,88.603577 152.021088,91.053848 
	C151.956619,91.608604 151.796509,91.952950 151.420929,91.923004 
	C149.355438,92.259209 147.665512,92.625351 145.584076,92.976555 
	C143.120132,93.332260 141.047729,93.702904 138.975311,94.073547 
z"/>
<path fill="#5F0302" opacity="1.000000" stroke="none" 
	d="
M145.382111,228.923431 
	C143.459122,228.424774 141.955475,227.931198 140.522034,227.154205 
	C141.312164,226.473434 142.169662,226.214828 142.731461,225.657928 
	C151.228378,217.235336 159.734680,208.820663 168.091522,200.260376 
	C169.114609,199.212387 169.288055,197.334961 169.886826,195.862976 
	C169.918411,195.884048 169.874847,195.946213 170.069977,195.870331 
	C170.518417,195.671982 170.745605,195.512299 171.225250,195.186005 
	C172.016312,194.733780 172.528763,194.410965 173.407410,194.066376 
	C183.714340,190.108414 190.655075,183.273911 194.283920,172.819366 
	C194.750137,172.056549 195.003967,171.508942 195.398285,170.792572 
	C195.707947,170.379776 195.830170,170.114166 195.841019,169.838470 
	C195.776581,169.849976 195.731003,169.727234 196.104004,169.761658 
	C197.915237,169.097061 199.658218,168.709793 200.743103,167.649307 
	C208.827286,159.746918 216.808273,151.737946 224.741547,143.683533 
	C225.740631,142.669205 226.273605,141.195740 227.022552,139.934998 
	C227.587173,141.403061 228.151794,142.871109 228.850311,144.653564 
	C229.309067,147.701187 229.633926,150.434418 229.611771,153.658295 
	C227.962097,155.146820 226.527969,156.012924 225.376221,157.162033 
	C202.568298,179.917786 179.781952,202.695221 157.041412,225.518265 
	C155.798676,226.765549 154.993454,228.448761 153.984589,229.929062 
	C151.256882,229.595551 148.529175,229.262024 145.382111,228.923431 
z"/>
<path fill="#570101" opacity="1.000000" stroke="none" 
	d="
M154.436737,229.988159 
	C154.993454,228.448761 155.798676,226.765549 157.041412,225.518265 
	C179.781952,202.695221 202.568298,179.917786 225.376221,157.162033 
	C226.527969,156.012924 227.962097,155.146820 229.591171,154.067596 
	C229.985703,157.017593 230.053818,160.048965 229.736908,163.609222 
	C228.157990,165.002548 226.822098,165.724579 225.791229,166.752518 
	C206.042480,186.444489 186.317337,206.160202 166.641022,225.924484 
	C165.520218,227.050293 164.859299,228.633942 163.984344,230.004501 
	C160.952530,230.018753 157.920700,230.033005 154.436737,229.988159 
z"/>
<path fill="#510000" opacity="1.000000" stroke="none" 
	d="
M164.425171,230.045258 
	C164.859299,228.633942 165.520218,227.050293 166.641022,225.924484 
	C186.317337,206.160202 206.042480,186.444489 225.791229,166.752518 
	C226.822098,165.724579 228.157990,165.002548 229.688507,164.060730 
	C229.652496,167.730453 229.279892,171.477554 228.682800,175.797485 
	C228.284836,176.575974 228.143555,176.801773 228.034454,177.047714 
	C228.034454,177.047714 228.069489,177.015305 227.730270,177.093475 
	C226.428055,177.783997 225.314072,178.244736 224.524429,179.031143 
	C209.392380,194.101562 194.283569,209.195450 179.230225,224.344376 
	C178.234467,225.346436 177.721222,226.827988 176.983551,228.086502 
	C172.944366,228.753006 168.905197,229.419510 164.425171,230.045258 
z"/>
<path fill="#490000" opacity="1.000000" stroke="none" 
	d="
M177.392105,228.089493 
	C177.721222,226.827988 178.234467,225.346436 179.230225,224.344376 
	C194.283569,209.195450 209.392380,194.101562 224.524429,179.031143 
	C225.314072,178.244736 226.428055,177.783997 227.734039,177.117050 
	C226.237350,189.588974 219.642853,199.692886 211.313736,208.690125 
	C202.922089,217.754868 192.496140,223.875610 180.757019,227.712524 
	C179.829285,228.015747 178.788757,227.973938 177.392105,228.089493 
z"/>
<path fill="#490000" opacity="1.000000" stroke="none" 
	d="
M228.202393,176.928741 
	C228.143555,176.801773 228.284836,176.575974 228.596954,176.229446 
	C228.688278,176.366669 228.566528,176.607071 228.202393,176.928741 
z"/>
<path fill="#690403" opacity="1.000000" stroke="none" 
	d="
M226.985352,139.577240 
	C226.273605,141.195740 225.740631,142.669205 224.741547,143.683533 
	C216.808273,151.737946 208.827286,159.746918 200.743103,167.649307 
	C199.658218,168.709793 197.915237,169.097061 196.134186,169.359863 
	C196.034500,165.941605 196.277618,162.959534 196.582504,159.594269 
	C196.627594,158.177567 196.610931,157.144058 196.955658,156.034943 
	C204.249039,149.435318 211.146210,142.873627 218.137146,136.413422 
	C219.913361,134.772034 221.987701,133.453247 223.925049,131.986237 
	C224.932755,134.397324 225.940460,136.808411 226.985352,139.577240 
z"/>
<path fill="#750705" opacity="1.000000" stroke="none" 
	d="
M223.869568,131.676544 
	C221.987701,133.453247 219.913361,134.772034 218.137146,136.413422 
	C211.146210,142.873627 204.249039,149.435318 196.811310,155.753082 
	C196.026688,154.321808 195.747818,153.096802 195.400330,151.494675 
	C194.894089,149.400208 194.456436,147.682861 194.123993,145.652969 
	C202.251816,137.503082 210.274414,129.665741 218.297028,121.828384 
	C219.756149,124.035255 221.215271,126.242126 222.880219,128.712463 
	C223.328705,129.772919 223.571396,130.569885 223.869568,131.676544 
z"/>
<path fill="#750805" opacity="1.000000" stroke="none" 
	d="
M120.522888,217.739441 
	C120.207329,217.588287 120.183098,217.262283 120.493790,217.029907 
	C127.349205,210.552139 133.855682,204.265808 140.465683,198.090286 
	C142.110031,196.554016 144.089081,195.375977 146.296509,194.072144 
	C148.398880,194.618622 150.119019,195.126236 152.123413,195.769073 
	C153.240997,195.948135 154.074341,195.991959 155.039642,196.137268 
	C155.171616,196.238770 155.495804,196.304840 155.495804,196.304840 
	C155.495804,196.304840 155.809525,196.199936 155.880905,196.360718 
	C155.952286,196.521515 156.059860,196.856537 155.980942,197.200134 
	C147.517426,206.076996 139.132828,214.610260 130.748215,223.143524 
	C130.748215,223.143524 130.357224,223.212372 130.162384,223.252365 
	C126.924507,221.491776 123.881477,219.691193 120.522888,217.739441 
z"/>
<path fill="#690403" opacity="1.000000" stroke="none" 
	d="
M131.007202,223.387939 
	C139.132828,214.610260 147.517426,206.076996 156.372803,197.146759 
	C157.889069,196.632614 158.934586,196.515457 160.387695,196.510895 
	C163.815292,196.362961 166.835281,196.102432 169.855255,195.841919 
	C169.288055,197.334961 169.114609,199.212387 168.091522,200.260376 
	C159.734680,208.820663 151.228378,217.235336 142.731461,225.657928 
	C142.169662,226.214828 141.312164,226.473434 140.250549,226.952759 
	C137.027985,225.900604 134.147095,224.766479 131.007202,223.387939 
z"/>
<path fill="#820C09" opacity="1.000000" stroke="none" 
	d="
M218.226517,121.616791 
	C210.274414,129.665741 202.251816,137.503082 193.919388,145.480087 
	C193.229736,145.021591 192.849899,144.423431 192.286621,143.544235 
	C191.162186,141.811249 190.221191,140.359299 189.177521,138.631256 
	C188.670670,137.686646 188.266510,137.018097 188.033844,136.038589 
	C194.292343,129.496262 200.427353,123.310547 206.431229,117.000092 
	C207.855545,115.503029 208.840256,113.587708 210.027176,111.864777 
	C210.465118,112.176193 210.903046,112.487617 211.580994,112.922806 
	C213.673050,115.605522 215.525085,118.164459 217.685852,120.856384 
	C217.994568,120.989365 218.156006,121.405197 218.226517,121.616791 
z"/>
<path fill="#AE1E16" opacity="1.000000" stroke="none" 
	d="
M97.194557,189.997284 
	C96.257629,187.604446 95.509727,185.261032 95.035004,182.458908 
	C96.872879,180.832474 98.594543,179.824722 99.975525,178.469757 
	C106.450233,172.116882 112.787354,165.623489 119.281281,159.290695 
	C120.642654,157.963089 122.458221,157.101227 124.118942,156.350555 
	C124.214394,157.114014 124.255402,157.551651 124.189102,158.397095 
	C124.153534,160.202438 124.225250,161.600006 124.253525,163.378571 
	C124.327667,164.774445 124.445251,165.789337 124.168915,166.857864 
	C121.860970,168.096848 119.687538,169.005646 118.077965,170.515533 
	C111.217308,176.951294 104.523392,183.564819 97.768623,190.113464 
	C97.768623,190.113464 97.383591,190.046722 97.194557,189.997284 
z"/>
<path fill="#A41A13" opacity="1.000000" stroke="none" 
	d="
M97.863342,190.454071 
	C104.523392,183.564819 111.217308,176.951294 118.077965,170.515533 
	C119.687538,169.005646 121.860970,168.096848 124.284592,167.045532 
	C124.861351,167.468750 124.970322,167.741211 125.096680,168.343475 
	C125.599953,170.190781 126.127663,171.691544 126.705132,173.495270 
	C126.792534,174.204102 126.830177,174.609970 126.516197,175.038330 
	C124.543114,176.106766 122.704193,176.926498 121.338905,178.238937 
	C116.216545,183.162979 111.368080,188.377106 106.149734,193.192932 
	C104.606812,194.616821 102.183937,195.087189 100.164307,195.994522 
	C99.428886,194.261246 98.693474,192.527954 97.863342,190.454071 
z"/>
<path fill="#9A1510" opacity="1.000000" stroke="none" 
	d="
M100.220215,196.305145 
	C102.183937,195.087189 104.606812,194.616821 106.149734,193.192932 
	C111.368080,188.377106 116.216545,183.162979 121.338905,178.238937 
	C122.704193,176.926498 124.543114,176.106766 126.707771,175.285217 
	C127.783768,176.364395 128.316559,177.219177 128.967697,178.397110 
	C129.454544,179.786484 129.823059,180.852692 129.819870,181.954681 
	C127.688988,183.103821 125.703781,183.975586 124.210167,185.372849 
	C118.086403,191.101730 112.112442,196.990723 106.083336,202.820770 
	C104.947411,201.891464 103.811493,200.962158 102.375839,199.918259 
	C101.476120,198.741043 100.876114,197.678421 100.220215,196.305145 
z"/>
<path fill="#8F110C" opacity="1.000000" stroke="none" 
	d="
M106.114967,203.133804 
	C112.112442,196.990723 118.086403,191.101730 124.210167,185.372849 
	C125.703781,183.975586 127.688988,183.103821 130.112274,182.028015 
	C131.525421,182.707779 132.274460,183.349976 133.145569,184.286209 
	C134.269852,185.676117 135.272049,186.772003 135.970306,188.043625 
	C129.393570,194.363480 123.195610,200.587311 116.794998,206.595261 
	C115.209549,208.083435 112.966934,208.871506 111.026405,209.981415 
	C111.026405,209.981415 110.997589,210.001053 110.909515,209.815536 
	C110.677216,209.412903 110.506912,209.218643 110.310547,209.047226 
	C110.115486,208.754776 109.920425,208.462326 109.501495,208.028778 
	C108.233948,206.407379 107.190269,204.927109 106.114967,203.133804 
z"/>
<path fill="#B9251B" opacity="1.000000" stroke="none" 
	d="
M124.064499,156.024765 
	C122.458221,157.101227 120.642654,157.963089 119.281281,159.290695 
	C112.787354,165.623489 106.450233,172.116882 99.975525,178.469757 
	C98.594543,179.824722 96.872879,180.832474 94.942841,182.095276 
	C94.577499,182.190338 94.273209,182.131714 94.123520,182.091095 
	C93.515274,179.882797 93.056725,177.715088 92.391785,175.236359 
	C92.195526,174.492065 92.205658,174.058792 92.587761,173.278290 
	C94.579262,171.848099 96.418640,170.988510 97.782646,169.645935 
	C106.686707,160.881897 115.436142,151.960205 124.387375,143.245377 
	C125.514877,142.147644 127.526886,141.958389 128.937653,141.634460 
	C127.809952,144.619873 126.873665,147.319077 125.718704,150.302734 
	C125.021523,152.399734 124.543015,154.212250 124.064499,156.024765 
z"/>
<path fill="#A41A13" opacity="1.000000" stroke="none" 
	d="
M189.050827,97.887741 
	C189.739838,97.944405 190.428848,98.001068 191.462433,98.064468 
	C193.059647,98.893539 194.312286,99.715858 195.702942,101.114120 
	C189.756638,108.097557 183.610641,114.448349 177.631683,120.952690 
	C176.150513,122.563995 175.210892,124.673134 173.712082,126.577347 
	C172.987137,126.602913 172.572449,126.604553 171.969437,126.395851 
	C171.058060,126.010170 170.335007,125.834831 169.312347,125.443146 
	C167.607758,124.850304 166.202759,124.473801 165.057495,123.867981 
	C167.731644,120.739395 170.012909,117.715378 172.588120,114.966766 
	C177.993835,109.197067 183.554047,103.572121 189.050827,97.887741 
z"/>
<path fill="#9A1510" opacity="1.000000" stroke="none" 
	d="
M174.022339,126.553429 
	C175.210892,124.673134 176.150513,122.563995 177.631683,120.952690 
	C183.610641,114.448349 189.756638,108.097557 195.911804,101.356819 
	C197.149231,101.611305 198.315811,102.199051 199.798904,102.874573 
	C200.636963,103.490379 201.158524,104.018410 201.813599,105.138885 
	C201.041153,107.244057 200.373398,108.983826 199.186569,110.228790 
	C194.863113,114.764038 190.285355,119.057190 185.972076,123.601677 
	C184.090622,125.583992 182.617340,127.953720 180.645691,130.084244 
	C179.555298,129.701065 178.777878,129.381149 177.754730,128.831467 
	C176.346756,127.918938 175.184555,127.236183 174.022339,126.553429 
z"/>
<path fill="#AF1F17" opacity="1.000000" stroke="none" 
	d="
M188.912598,97.598465 
	C183.554047,103.572121 177.993835,109.197067 172.588120,114.966766 
	C170.012909,117.715378 167.731644,120.739395 164.759735,123.930847 
	C163.800446,124.268097 163.398697,124.313148 162.586548,124.252472 
	C160.778839,124.214043 159.381516,124.281342 157.660583,124.295029 
	C156.902878,124.201042 156.468781,124.160652 156.089890,123.765434 
	C157.621277,121.249214 158.845306,118.850304 160.618042,116.968193 
	C167.684067,109.466187 174.920975,102.125122 182.273468,94.648628 
	C182.452286,94.572784 182.802109,94.403755 182.802109,94.403755 
	C183.263168,94.602798 183.724228,94.801842 184.557922,95.059547 
	C186.211838,95.848541 187.493103,96.578865 188.912598,97.598465 
z"/>
<path fill="#8F110C" opacity="1.000000" stroke="none" 
	d="
M180.958710,130.147522 
	C182.617340,127.953720 184.090622,125.583992 185.972076,123.601677 
	C190.285355,119.057190 194.863113,114.764038 199.186569,110.228790 
	C200.373398,108.983826 201.041153,107.244057 201.968170,105.372231 
	C203.378632,105.942139 204.768051,106.871155 206.430878,107.942474 
	C207.709564,109.164024 208.714844,110.243271 209.873642,111.593651 
	C208.840256,113.587708 207.855545,115.503029 206.431229,117.000092 
	C200.427353,123.310547 194.292343,129.496262 187.752716,135.879791 
	C186.187653,135.055740 185.075195,134.079514 183.813629,132.836487 
	C182.762589,131.762299 181.860641,130.954910 180.958710,130.147522 
z"/>
<path fill="#820C09" opacity="1.000000" stroke="none" 
	d="
M111.131973,210.257233 
	C112.966934,208.871506 115.209549,208.083435 116.794998,206.595261 
	C123.195610,200.587311 129.393570,194.363480 136.185501,188.061493 
	C136.704651,187.903625 137.135025,187.941528 137.287140,188.238007 
	C139.293747,189.690125 141.148270,190.845764 143.206467,192.222107 
	C144.244873,192.972977 145.079590,193.503128 145.914276,194.033295 
	C144.089081,195.375977 142.110031,196.554016 140.465683,198.090286 
	C133.855682,204.265808 127.349205,210.552139 120.482117,216.866867 
	C117.988487,215.366318 115.817207,213.796417 113.318130,212.157715 
	C112.406059,211.570297 111.821800,211.051666 111.131973,210.257233 
z"/>
<path fill="#820C09" opacity="1.000000" stroke="none" 
	d="
M110.321793,209.261536 
	C110.506912,209.218643 110.677216,209.412903 110.916443,209.799438 
	C110.712898,209.904114 110.486771,209.739777 110.321793,209.261536 
z"/>
<path fill="#BA251B" opacity="1.000000" stroke="none" 
	d="
M182.094635,94.724472 
	C174.920975,102.125122 167.684067,109.466187 160.618042,116.968193 
	C158.845306,118.850304 157.621277,121.249214 155.790985,123.953476 
	C153.626236,125.008873 151.815567,125.521416 149.621490,126.014130 
	C145.827972,127.581345 142.417892,129.168381 139.036865,130.411194 
	C140.249893,128.338776 141.208755,126.389252 142.654724,124.918686 
	C151.346924,116.078674 160.234421,107.429169 168.841019,98.507950 
	C170.402527,96.889343 170.967133,94.308998 171.991959,92.172638 
	C172.660797,92.181465 173.329620,92.190292 174.330368,92.173813 
	C176.810440,92.778679 178.958588,93.408844 181.549805,94.204559 
	C181.992859,94.370110 182.094635,94.724480 182.094635,94.724472 
z"/>
<path fill="#23851C" opacity="1.000000" stroke="none" 
	d="
M182.273468,94.648636 
	C182.094635,94.724480 181.992859,94.370110 181.924561,94.198654 
	C182.078751,94.081482 182.293869,94.156853 182.651855,94.328529 
	C182.802109,94.403755 182.452286,94.572784 182.273468,94.648636 
z"/>
<path fill="#C32A1F" opacity="1.000000" stroke="none" 
	d="
M171.656799,92.072357 
	C170.967133,94.308998 170.402527,96.889343 168.841019,98.507950 
	C160.234421,107.429169 151.346924,116.078674 142.654724,124.918686 
	C141.208755,126.389252 140.249893,128.338776 138.812225,130.673248 
	C135.415390,134.635757 132.272232,137.991989 129.129089,141.348236 
	C127.526886,141.958389 125.514877,142.147644 124.387375,143.245377 
	C115.436142,151.960205 106.686707,160.881897 97.782646,169.645935 
	C96.418640,170.988510 94.579262,171.848099 92.618324,172.953949 
	C91.930794,171.221054 91.584671,169.465271 91.115280,167.346497 
	C91.059906,166.534866 91.127800,166.086212 91.606239,165.281708 
	C93.511124,163.950760 95.228783,163.199921 96.466606,161.967255 
	C118.398697,140.126724 140.291595,118.246628 162.110931,96.293541 
	C163.419159,94.977287 164.038788,92.976616 164.978821,91.294418 
	C165.730453,91.227814 166.482071,91.161209 167.607086,91.038734 
	C169.094193,91.312607 170.207916,91.642342 171.656799,92.072357 
z"/>
<path fill="#CD2F23" opacity="1.000000" stroke="none" 
	d="
M164.569839,91.213020 
	C164.038788,92.976616 163.419159,94.977287 162.110931,96.293541 
	C140.291595,118.246628 118.398697,140.126724 96.466606,161.967255 
	C95.228783,163.199921 93.511124,163.950760 91.680008,164.948776 
	C91.215668,163.264709 91.088127,161.557693 90.904480,159.424973 
	C91.075272,157.148331 91.302162,155.297409 91.758064,153.428558 
	C94.341675,158.383545 95.756699,153.564835 96.702553,152.630295 
	C115.487152,134.070251 134.155960,115.392548 152.756821,96.647964 
	C154.179642,95.214149 154.921570,93.104698 155.979980,91.309296 
	C157.053207,91.198166 158.126404,91.087029 159.598755,90.904823 
	C161.385544,90.933052 162.773193,91.032341 164.569839,91.213020 
z"/>
<path fill="#D73528" opacity="1.000000" stroke="none" 
	d="
M155.570282,91.256920 
	C154.921570,93.104698 154.179642,95.214149 152.756821,96.647964 
	C134.155960,115.392548 115.487152,134.070251 96.702553,152.630295 
	C95.756699,153.564835 94.341675,158.383545 91.939026,153.077362 
	C91.877068,152.055374 91.863152,151.366653 91.816490,150.333038 
	C92.062263,148.850296 92.340767,147.712448 93.138153,146.208817 
	C94.615974,145.214935 95.717529,144.730011 96.512794,143.937653 
	C112.275154,128.233032 128.016037,112.506737 143.703278,96.727173 
	C144.702377,95.722191 145.229126,94.247612 145.975601,92.991493 
	C147.665512,92.625351 149.355438,92.259209 151.588120,91.898521 
	C152.348648,91.856880 152.561066,91.792198 152.768127,91.709938 
	C153.565613,91.541473 154.363083,91.373009 155.570282,91.256920 
z"/>
<path fill="#CD2F23" opacity="1.000000" stroke="none" 
	d="
M152.599487,91.589111 
	C152.561066,91.792198 152.348648,91.856880 151.963699,91.928467 
	C151.796509,91.952950 151.956619,91.608604 152.017548,91.428909 
	C152.078461,91.249214 152.430832,91.468292 152.599487,91.589111 
z"/>
<path fill="#E74331" opacity="1.000000" stroke="none" 
	d="
M96.742340,133.903152 
	C98.405472,130.487610 100.068596,127.072060 101.813934,123.321915 
	C107.994148,114.734238 114.864433,107.274940 123.875710,101.555336 
	C127.115768,99.816513 130.149429,98.326477 133.503174,97.128723 
	C133.253479,98.402985 132.860809,99.560699 132.087173,100.340416 
	C121.618340,110.891640 111.120689,121.414772 100.547935,131.861633 
	C99.565849,132.832031 98.024185,133.236115 96.742340,133.903152 
z"/>
<path fill="#E13C2C" opacity="1.000000" stroke="none" 
	d="
M96.526016,134.112976 
	C98.024185,133.236115 99.565849,132.832031 100.547935,131.861633 
	C111.120689,121.414772 121.618340,110.891640 132.087173,100.340416 
	C132.860809,99.560699 133.253479,98.402985 133.862946,97.063095 
	C135.416061,95.945908 136.929474,95.186638 138.709106,94.250458 
	C141.047729,93.702904 143.120132,93.332260 145.584076,92.976555 
	C145.229126,94.247612 144.702377,95.722191 143.703278,96.727173 
	C128.016037,112.506737 112.275154,128.233032 96.512794,143.937653 
	C95.717529,144.730011 94.615974,145.214935 93.320557,145.907181 
	C93.627762,143.232803 94.271446,140.494263 94.936531,137.372726 
	C95.408516,136.100754 95.859100,135.211792 96.526016,134.112976 
z"/>
<path fill="#BD9902" opacity="1.000000" stroke="none" 
	d="
M169.886841,195.862976 
	C166.835281,196.102432 163.815292,196.362961 160.423599,196.194550 
	C160.611099,194.775604 160.985275,193.602051 161.757553,192.823334 
	C172.013947,182.481415 182.299927,172.168259 192.667313,161.937912 
	C193.644806,160.973343 195.221970,160.616470 196.520737,159.977478 
	C196.277618,162.959534 196.034500,165.941605 195.761200,169.325439 
	C195.731003,169.727234 195.776581,169.849976 195.628082,169.950729 
	C195.273224,170.322525 195.199280,170.625809 195.257782,170.961334 
	C195.003967,171.508942 194.750137,172.056549 193.932159,172.876266 
	C187.584747,178.263550 181.699417,183.270599 176.087921,188.567719 
	C174.632355,189.941742 174.033569,192.223404 173.041229,194.088150 
	C172.528763,194.410965 172.016312,194.733780 171.000977,195.197464 
	C170.184418,195.432297 169.976669,195.634933 169.874847,195.946213 
	C169.874847,195.946213 169.918411,195.884048 169.886841,195.862976 
z"/>
<path fill="#B99200" opacity="1.000000" stroke="none" 
	d="
M173.407410,194.066376 
	C174.033569,192.223404 174.632355,189.941742 176.087921,188.567719 
	C181.699417,183.270599 187.584747,178.263550 193.719757,173.091461 
	C190.655075,183.273911 183.714340,190.108414 173.407410,194.066376 
z"/>
<path fill="#690403" opacity="1.000000" stroke="none" 
	d="
M170.069977,195.870331 
	C169.976669,195.634933 170.184418,195.432297 170.722366,195.326859 
	C170.745605,195.512299 170.518417,195.671982 170.069977,195.870331 
z"/>
<path fill="#690403" opacity="1.000000" stroke="none" 
	d="
M195.398285,170.792572 
	C195.199280,170.625809 195.273224,170.322525 195.692535,169.939224 
	C195.830170,170.114166 195.707947,170.379776 195.398285,170.792572 
z"/>
<path fill="#C5A506" opacity="1.000000" stroke="none" 
	d="
M196.582504,159.594269 
	C195.221970,160.616470 193.644806,160.973343 192.667313,161.937912 
	C182.299927,172.168259 172.013947,182.481415 161.757553,192.823334 
	C160.985275,193.602051 160.611099,194.775604 160.015991,196.081955 
	C158.934586,196.515457 157.889069,196.632614 156.451721,196.803162 
	C156.059860,196.856537 155.952286,196.521515 155.734344,196.321716 
	C155.316910,196.069229 155.113998,196.040527 154.907684,196.035782 
	C154.074341,195.991959 153.240997,195.948135 152.201843,195.386017 
	C152.898636,193.511688 153.607819,191.963791 154.733536,190.829147 
	C166.746063,178.721313 178.798447,166.652527 190.924942,154.659012 
	C192.155121,153.442307 193.940964,152.787399 195.468948,151.871780 
	C195.747818,153.096802 196.026688,154.321808 196.449890,155.828705 
	C196.610931,157.144058 196.627594,158.177567 196.582504,159.594269 
z"/>
<path fill="#CBAE0C" opacity="1.000000" stroke="none" 
	d="
M195.400330,151.494675 
	C193.940964,152.787399 192.155121,153.442307 190.924942,154.659012 
	C178.798447,166.652527 166.746063,178.721313 154.733536,190.829147 
	C153.607819,191.963791 152.898636,193.511688 151.917603,195.250793 
	C150.119019,195.126236 148.398880,194.618622 146.296509,194.072144 
	C145.079590,193.503128 144.244873,192.972977 143.487335,192.044952 
	C158.099564,177.208221 172.622620,162.757217 187.186340,148.347336 
	C188.829956,146.721085 190.703262,145.326996 192.470062,143.825256 
	C192.849899,144.423431 193.229736,145.021591 193.814178,145.792618 
	C194.456436,147.682861 194.894089,149.400208 195.400330,151.494675 
z"/>
<path fill="#BD9902" opacity="1.000000" stroke="none" 
	d="
M155.039642,196.137268 
	C155.113998,196.040527 155.316910,196.069229 155.662964,196.160919 
	C155.809525,196.199936 155.495804,196.304840 155.495804,196.304840 
	C155.495804,196.304840 155.171616,196.238770 155.039642,196.137268 
z"/>
<path fill="#D2B915" opacity="1.000000" stroke="none" 
	d="
M192.286621,143.544220 
	C190.703262,145.326996 188.829956,146.721085 187.186340,148.347336 
	C172.622620,162.757217 158.099564,177.208221 143.283646,191.824249 
	C141.148270,190.845764 139.293747,189.690125 137.557205,188.061523 
	C152.783905,172.559341 167.852066,157.488800 183.059158,142.559769 
	C184.723770,140.925598 187.187256,140.105194 189.280212,138.907349 
	C190.221191,140.359299 191.162186,141.811249 192.286621,143.544220 
z"/>
<path fill="#D7C11F" opacity="1.000000" stroke="none" 
	d="
M189.177521,138.631256 
	C187.187256,140.105194 184.723770,140.925598 183.059158,142.559769 
	C167.852066,157.488800 152.783905,172.559341 137.405090,187.765045 
	C137.135025,187.941528 136.704651,187.903625 136.489456,187.885757 
	C135.272049,186.772003 134.269852,185.676117 133.425507,184.110229 
	C137.745331,179.570404 141.958908,175.551804 146.059662,171.421173 
	C158.717148,158.671509 171.331589,145.879089 183.962738,133.103271 
	C185.075195,134.079514 186.187653,135.055740 187.581238,136.190765 
	C188.266510,137.018097 188.670670,137.686646 189.177521,138.631256 
z"/>
<path fill="#F4F06F" opacity="1.000000" stroke="none" 
	d="
M150.004913,126.033951 
	C151.815567,125.521416 153.626236,125.008873 155.735794,124.308304 
	C156.468781,124.160652 156.902878,124.201042 157.628311,124.631607 
	C157.298996,126.157417 156.898102,127.510185 156.023773,128.395203 
	C146.932953,137.597107 137.802048,146.760513 128.572006,155.822296 
	C127.485191,156.889297 125.737648,157.283310 124.296402,157.989304 
	C124.255402,157.551651 124.214394,157.114014 124.118950,156.350555 
	C124.543015,154.212250 125.021523,152.399734 126.058044,150.228226 
	C132.953629,143.871613 139.352020,137.936188 145.589142,131.835876 
	C147.308182,130.154541 148.546188,127.981415 150.004913,126.033951 
z"/>
<path fill="#ECE253" opacity="1.000000" stroke="none" 
	d="
M162.996933,124.358200 
	C163.398697,124.313148 163.800446,124.268097 164.499985,124.160172 
	C166.202759,124.473801 167.607758,124.850304 168.979034,125.629990 
	C156.050552,138.769089 143.177185,151.526825 130.232132,164.211411 
	C128.732193,165.681183 126.834450,166.744949 125.121124,167.996948 
	C124.970322,167.741211 124.861351,167.468750 124.678513,166.991882 
	C124.445251,165.789337 124.327667,164.774445 124.593781,163.347900 
	C126.237633,162.203873 127.720886,161.696899 128.723663,160.704437 
	C139.468704,150.069901 150.168594,139.389008 160.780563,128.621948 
	C161.855148,127.531662 162.273865,125.794937 162.996933,124.358200 
z"/>
<path fill="#F0E75F" opacity="1.000000" stroke="none" 
	d="
M162.586548,124.252472 
	C162.273865,125.794937 161.855148,127.531662 160.780563,128.621948 
	C150.168594,139.389008 139.468704,150.069901 128.723663,160.704437 
	C127.720886,161.696899 126.237633,162.203873 124.637222,162.966919 
	C124.225250,161.600006 124.153534,160.202438 124.189102,158.397095 
	C125.737648,157.283310 127.485191,156.889297 128.572006,155.822296 
	C137.802048,146.760513 146.932953,137.597107 156.023773,128.395203 
	C156.898102,127.510185 157.298996,126.157417 157.951935,124.685219 
	C159.381516,124.281342 160.778839,124.214043 162.586548,124.252472 
z"/>
<path fill="#E4D53A" opacity="1.000000" stroke="none" 
	d="
M173.712082,126.577347 
	C175.184555,127.236183 176.346756,127.918938 177.677383,129.161148 
	C177.087784,130.789001 176.463409,131.990509 175.551727,132.905853 
	C161.387772,147.126999 147.204254,161.328842 132.960144,175.469589 
	C131.835968,176.585587 130.230927,177.217209 128.849365,178.073944 
	C128.316559,177.219177 127.783768,176.364395 127.059395,175.262741 
	C126.830177,174.609970 126.792534,174.204102 127.014572,173.312469 
	C141.639587,158.582153 156.020081,144.352753 170.333435,130.056122 
	C171.212830,129.177750 171.561920,127.768456 172.157761,126.606186 
	C172.572449,126.604553 172.987137,126.602913 173.712082,126.577347 
z"/>
<path fill="#E9DD48" opacity="1.000000" stroke="none" 
	d="
M171.969437,126.395859 
	C171.561920,127.768456 171.212830,129.177750 170.333435,130.056122 
	C156.020081,144.352753 141.639587,158.582153 126.964813,173.009521 
	C126.127663,171.691544 125.599953,170.190781 125.096687,168.343475 
	C126.834450,166.744949 128.732193,165.681183 130.232132,164.211411 
	C143.177185,151.526825 156.050552,138.769089 169.278625,125.846329 
	C170.335007,125.834831 171.058060,126.010170 171.969437,126.395859 
z"/>
<path fill="#DECB2B" opacity="1.000000" stroke="none" 
	d="
M128.967697,178.397110 
	C130.230927,177.217209 131.835968,176.585587 132.960144,175.469589 
	C147.204254,161.328842 161.387772,147.126999 175.551727,132.905853 
	C176.463409,131.990509 177.087784,130.789001 177.923126,129.390915 
	C178.777878,129.381149 179.555298,129.701065 180.645706,130.084259 
	C181.860641,130.954910 182.762589,131.762299 183.813629,132.836487 
	C171.331589,145.879089 158.717148,158.671509 146.059662,171.421173 
	C141.958908,175.551804 137.745331,179.570404 133.303436,183.816208 
	C132.274460,183.349976 131.525421,182.707779 130.483978,181.992233 
	C129.823059,180.852692 129.454544,179.786484 128.967697,178.397110 
z"/>
<path fill="#F8F37F" opacity="1.000000" stroke="none" 
	d="
M149.621490,126.014130 
	C148.546188,127.981415 147.308182,130.154541 145.589142,131.835876 
	C139.352020,137.936188 132.953629,143.871613 126.276718,149.943756 
	C126.873665,147.319077 127.809952,144.619873 128.937653,141.634460 
	C132.272232,137.991989 135.415390,134.635757 138.783173,131.017471 
	C142.417892,129.168381 145.827972,127.581345 149.621490,126.014130 
z"/>
</svg>